#define headphone1_new_width 12
#define headphone1_new_height 12
static unsigned char headphone1_new_bits[] = {
   0x00, 0x00, 0x00, 0x00, 0xf0, 0x00, 0x08, 0x01, 0x04, 0x02, 0x04, 0x02,
   0x04, 0x02, 0x9c, 0x03, 0x9c, 0x03, 0x98, 0x01, 0x00, 0x00, 0x00, 0x00 };
