#define mail_width 15
#define mail_height 15
static unsigned char mail_bits[] = {
   0x00, 0x00, 0x00, 0x00, 0xfe, 0x3f, 0x06, 0x30, 0x0e, 0x38, 0x1a, 0x2c,
   0x32, 0x26, 0xc2, 0x21, 0x82, 0x20, 0x02, 0x20, 0x02, 0x20, 0xfe, 0x3f,
   0x00, 0x00, 0x00, 0x00, 0x00, 0x00 };
