#define memory_width 16
#define memory_height 16
static unsigned char memory_bits[] = {
   0x00, 0x00, 0x00, 0x00, 0x00, 0x00, 0x48, 0x12, 0x48, 0x12, 0xfc, 0x3f,
   0xfc, 0x3f, 0xfc, 0x3f, 0xfc, 0x3f, 0xfc, 0x3f, 0xfc, 0x3f, 0x48, 0x12,
   0x48, 0x12, 0x00, 0x00, 0x00, 0x00, 0x00, 0x00 };
