#define ping_width 16
#define ping_height 16
static unsigned char ping_bits[] = {
   0x00, 0x00, 0x00, 0x00, 0x00, 0x00, 0x08, 0x10, 0x98, 0x0f, 0x30, 0x08,
   0x60, 0x08, 0xe0, 0x08, 0xc0, 0x09, 0xe0, 0x03, 0x70, 0x07, 0x38, 0x0c,
   0x18, 0x18, 0x00, 0x00, 0x00, 0x00, 0x00, 0x00 };
