#define up_width 12
#define up_height 12
static unsigned char up_bits[] = {
   0x00, 0x00, 0x40, 0x00, 0xe0, 0x00, 0xf0, 0x01, 0xf8, 0x03, 0xe0, 0x00,
   0xe0, 0x00, 0xe0, 0x00, 0xe0, 0x00, 0xe0, 0x00, 0xe0, 0x00, 0x00, 0x00 };
