#define volume_mute_width 16
#define volume_mute_height 16
static unsigned char volume_mute_bits[] = {
   0x00, 0x00, 0x00, 0x00, 0x00, 0x01, 0x80, 0x01, 0xc0, 0x01, 0xfc, 0x01,
   0xfc, 0x01, 0xfc, 0x29, 0xfc, 0x11, 0xfc, 0x29, 0xfc, 0x01, 0xc0, 0x01,
   0x80, 0x01, 0x00, 0x01, 0x00, 0x00, 0x00, 0x00 };
