#define weather_width 16
#define weather_height 16
static unsigned char weather_bits[] = {
   0x00, 0x00, 0xfe, 0x7f, 0x02, 0x40, 0x02, 0x40, 0x02, 0x40, 0x02, 0x40,
   0x02, 0x44, 0x02, 0x4a, 0x02, 0x71, 0x8e, 0x40, 0x52, 0x40, 0x22, 0x40,
   0x02, 0x40, 0x02, 0x40, 0xfe, 0x7f, 0x00, 0x00 };
