#define wireless_width 16
#define wireless_height 16
static unsigned char wireless_bits[] = {
   0x00, 0x00, 0x00, 0x00, 0x00, 0x10, 0x00, 0x10, 0x00, 0x12, 0x00, 0x12,
   0x40, 0x12, 0x40, 0x12, 0x48, 0x12, 0x48, 0x12, 0x48, 0x12, 0x40, 0x12,
   0x00, 0x12, 0x00, 0x10, 0x00, 0x00, 0x00, 0x00 };
